<svg xmlns="http://www.w3.org/2000/svg" xmlns:xlink="http://www.w3.org/1999/xlink" width="500" zoomAndPan="magnify" viewBox="0 0 375 374.999991" height="500" preserveAspectRatio="xMidYMid meet" version="1.0"><defs><g/></defs><g fill="#dfd8c9" fill-opacity="1"><g transform="translate(28.14249, 256.700205)"><g><path d="M 69.4375 0.515625 L 5.78125 -136.21875 L 43.65625 -137.625 L 84.453125 -46.5 Z M 69.4375 0.515625 "/></g></g></g><g fill="#dfd8c9" fill-opacity="1"><g transform="translate(275.952702, 254.32368)"><g><path d="M 10.828125 0 L 10.828125 -135.90625 L 42.8125 -135.90625 L 42.8125 0 Z M 10.828125 0 "/></g></g></g><g fill="#dfd8c9" fill-opacity="1"><g transform="translate(298.791581, 152.648458)"><g><path d="M -69.4375 -0.140625 L -5.046875 136.234375 L -42.921875 137.84375 L -84.203125 46.9375 Z M -69.4375 -0.140625 "/></g></g></g><g fill="#dfd8c9" fill-opacity="1"><g transform="translate(226.473285, 194.999548)"><g><path d="M -47.78125 -50.390625 L -102.171875 90.28125 L -129.4375 63.953125 L -92.0625 -28.609375 Z M -47.78125 -50.390625 "/></g></g></g><g fill="#dfd8c9" fill-opacity="1"><g transform="translate(100.655823, 215.160853)"><g><path d="M 48.03125 50.140625 L 101.671875 -90.8125 L 129.09375 -64.640625 L 92.21875 28.125 Z M 48.03125 50.140625 "/></g></g></g></svg>